<svg xmlns="http://www.w3.org/2000/svg" viewBox="0 0 100 100">
  <path d="M10,20 C15,20 18,25 25,25 C32,25 35,20 40,20 C45,20 48,25 55,25 C62,25 65,20 70,20 C75,20 78,25 85,25 C92,25 95,20 95,20
         L95,40 C95,40 92,35 85,35 C78,35 75,40 70,40 C65,40 62,35 55,35 C48,35 45,40 40,40 C35,40 32,35 25,35 C18,35 15,40 10,40
         L10,60 C10,60 15,55 22,55 C29,55 32,60 37,60 C42,60 45,55 52,55 C59,55 62,60 67,60 C72,60 75,55 82,55 C89,55 95,60 95,60
         L95,80 C95,80 89,75 82,75 C75,75 72,80 67,80 C62,80 59,75 52,75 C45,75 42,80 37,80 C32,80 29,75 22,75 C15,75 10,80 10,80 Z" 
  fill="#1abc9c" stroke="#16a085" stroke-width="2"/>
</svg> 